# xmcd CD database file
#
# Track frame offsets:
#	150
#	14856
#	33988
#	54919
#	72776
#	94757
#	108111
#	124167
#	142999
#	161606
#	172337
#	188618
#	205499
#	224856
#	243012
#	260869
#	278522
#	293753
#	313859
#
# Disc length: 4435 seconds
#
# Revision: 0
# Processed by: cddbd v1.5.1PL2 Copyright (c) Steve Scherf et al.
# Submitted via: CDex 1.51
#
DISCID=22115113
DTITLE=MYMP - MYMP
DYEAR=1900
DGENRE=Pop
TTITLE0=Get Me
TTITLE1=Tell Me Where It Hurts
TTITLE2=Kailan
TTITLE3=Magical Feeling
TTITLE4=Sa Kanya
TTITLE5=Jam
TTITLE6=When I Dream
TTITLE7=Talaga Naman
TTITLE8=Rush
TTITLE9=Ginoo, Walay Sukod
TTITLE10=True Colors
TTITLE11=Especially For You
TTITLE12=Constantly
TTITLE13=The Closer Get To You
TTITLE14=Whenever Wherever Whatever
TTITLE15=For All Of My Life
TTITLE16=Eternal Flame
TTITLE17=Say You Love Me
TTITLE18=Beauty And Madness
EXTD=
EXTT0=
EXTT1=
EXTT2=
EXTT3=
EXTT4=
EXTT5=
EXTT6=
EXTT7=
EXTT8=
EXTT9=
EXTT10=
EXTT11=
EXTT12=
EXTT13=
EXTT14=
EXTT15=
EXTT16=
EXTT17=
EXTT18=
PLAYORDER=
